<svg xmlns="http://www.w3.org/2000/svg" width="720" height="620" viewBox="0 0 720 620" role="img" aria-labelledby="title desc">
<title id="title">offline</title><desc id="desc">TechNomads interface state illustration</desc>
<defs>
 <linearGradient id="bg" x1="0" y1="0" x2="1" y2="1"><stop stop-color="#10173b"/><stop offset=".52" stop-color="#2A2D7C"/><stop offset="1" stop-color="#087f91"/></linearGradient>
 <linearGradient id="cyan" x1="0" y1="0" x2="1" y2="1"><stop stop-color="#62F5F0"/><stop offset=".55" stop-color="#28A9F6"/><stop offset="1" stop-color="#8A65FF"/></linearGradient>
 <linearGradient id="coral" x1="0" y1="0" x2="1" y2="1"><stop stop-color="#FF8A83"/><stop offset="1" stop-color="#FF5D9E"/></linearGradient>
 <linearGradient id="screen" x1="0" y1="0" x2="1" y2="1"><stop stop-color="#141E5B"/><stop offset=".55" stop-color="#20266f"/><stop offset="1" stop-color="#087f91"/></linearGradient>
 <linearGradient id="glass" x1="0" y1="0" x2="1" y2="1"><stop stop-color="#A8F8FF" stop-opacity=".26"/><stop offset="1" stop-color="#9A7BFF" stop-opacity=".08"/></linearGradient>
 <filter id="shadow" x="-40%" y="-40%" width="180%" height="190%"><feDropShadow dx="0" dy="18" stdDeviation="18" flood-color="#020617" flood-opacity=".58"/></filter>
 <filter id="glow"><feGaussianBlur stdDeviation="16"/></filter>
 <clipPath id="screenClip"><rect x="95" y="88" width="460" height="300" rx="23"/></clipPath>
</defs><rect width="720" height="620" rx="28" fill="#0A102B"/><circle cx="360" cy="285" r="180" fill="#4ECDC4" opacity=".08"/><g fill="none" stroke="url(#cyan)" stroke-width="16" stroke-linecap="round"><path d="M200 240Q360 90 520 240"/><path d="M250 292Q360 190 470 292"/><path d="M302 342Q360 290 418 342"/></g><circle cx="360" cy="395" r="18" fill="#FF6B6B"/><path d="M250 180 470 410" stroke="#FF6B6B" stroke-width="18" stroke-linecap="round"/><text x="360" y="490" text-anchor="middle" font-family="Arial" font-size="26" font-weight="700" fill="#EAFBFF">YOU'RE OFFLINE</text><text x="360" y="525" text-anchor="middle" font-family="Arial" font-size="16" fill="#91A8D8">Check your connection and retry</text></svg>